<svg width="23" height="24" viewBox="0 0 23 24" fill="none" xmlns="http://www.w3.org/2000/svg">
<g clip-path="url(#clip0_354_956)">
<path d="M3.83301 8.16659C3.83301 7.14992 4.23688 6.1749 4.95577 5.45601C5.67465 4.73712 6.64968 4.33325 7.66634 4.33325H15.333C16.3497 4.33325 17.3247 4.73712 18.0436 5.45601C18.7625 6.1749 19.1663 7.14992 19.1663 8.16659V15.8333C19.1663 16.8499 18.7625 17.8249 18.0436 18.5438C17.3247 19.2627 16.3497 19.6666 15.333 19.6666H7.66634C6.64968 19.6666 5.67465 19.2627 4.95577 18.5438C4.23688 17.8249 3.83301 16.8499 3.83301 15.8333V8.16659Z" stroke="#E0D6D0" stroke-width="1.5" stroke-linecap="round" stroke-linejoin="round"/>
<path d="M8.625 12C8.625 12.7625 8.9279 13.4938 9.46707 14.0329C10.0062 14.5721 10.7375 14.875 11.5 14.875C12.2625 14.875 12.9938 14.5721 13.5329 14.0329C14.0721 13.4938 14.375 12.7625 14.375 12C14.375 11.2375 14.0721 10.5062 13.5329 9.96707C12.9938 9.4279 12.2625 9.125 11.5 9.125C10.7375 9.125 10.0062 9.4279 9.46707 9.96707C8.9279 10.5062 8.625 11.2375 8.625 12Z" stroke="#E0D6D0" stroke-width="2" stroke-linecap="round" stroke-linejoin="round"/>
<path d="M15.8125 7.6875V7.69708" stroke="#E0D6D0" stroke-width="2" stroke-linecap="round" stroke-linejoin="round"/>
</g>
<defs>
<clipPath id="clip0_354_956">
<rect width="23" height="23" fill="white" transform="translate(0 0.5)"/>
</clipPath>
</defs>
</svg>
