<svg width="24" height="24" viewBox="0 0 24 24" fill="none" xmlns="http://www.w3.org/2000/svg">
<g clip-path="url(#clip0_188_2641)">
<path d="M4.33301 8.16634C4.33301 7.14968 4.73688 6.17465 5.45577 5.45577C6.17465 4.73688 7.14968 4.33301 8.16634 4.33301H15.833C16.8497 4.33301 17.8247 4.73688 18.5436 5.45577C19.2625 6.17465 19.6663 7.14968 19.6663 8.16634V15.833C19.6663 16.8497 19.2625 17.8247 18.5436 18.5436C17.8247 19.2625 16.8497 19.6663 15.833 19.6663H8.16634C7.14968 19.6663 6.17465 19.2625 5.45577 18.5436C4.73688 17.8247 4.33301 16.8497 4.33301 15.833V8.16634Z" stroke="#35302D" stroke-width="1.5" stroke-linecap="round" stroke-linejoin="round"/>
<path d="M9.125 12C9.125 12.7625 9.4279 13.4938 9.96707 14.0329C10.5062 14.5721 11.2375 14.875 12 14.875C12.7625 14.875 13.4938 14.5721 14.0329 14.0329C14.5721 13.4938 14.875 12.7625 14.875 12C14.875 11.2375 14.5721 10.5062 14.0329 9.96707C13.4938 9.4279 12.7625 9.125 12 9.125C11.2375 9.125 10.5062 9.4279 9.96707 9.96707C9.4279 10.5062 9.125 11.2375 9.125 12Z" stroke="#35302D" stroke-width="2" stroke-linecap="round" stroke-linejoin="round"/>
<path d="M16.3125 7.6875V7.69708" stroke="#35302D" stroke-width="2" stroke-linecap="round" stroke-linejoin="round"/>
</g>
<defs>
<clipPath id="clip0_188_2641">
<rect width="23" height="23" fill="white" transform="translate(0.5 0.5)"/>
</clipPath>
</defs>
</svg>
