<svg width="73" height="84" viewBox="0 0 73 84" fill="none" xmlns="http://www.w3.org/2000/svg">
<path fill-rule="evenodd" clip-rule="evenodd" d="M34.2797 0.0210806C27.0891 0.520192 20.4932 2.95481 14.8656 7.18691L14.1828 7.70039H13.7444C13.3315 7.70039 13.0232 7.77426 13.0232 7.87317C13.0232 8.03384 13.1969 8.22154 13.5156 8.40513C14.2059 8.8029 14.8212 9.54088 15.0827 10.2849C15.3984 11.1829 15.375 9.56847 15.3942 31.757C15.4135 54.185 15.4367 52.6012 15.0751 53.539C14.7779 54.3095 14.2933 54.9012 13.4295 55.5481C12.9453 55.9106 12.6902 56.1756 12.6902 56.3159C12.6902 56.3509 12.7768 56.4157 12.8827 56.46C13.0427 56.5269 13.5842 56.5404 16.1006 56.5404C18.7511 56.5404 19.1536 56.5294 19.3491 56.4511C19.4718 56.402 19.5722 56.3503 19.5722 56.3363C19.5722 56.3222 19.496 56.1999 19.4029 56.0646C19.3051 55.9223 19.0612 55.7021 18.8251 55.5428C17.7822 54.8391 17.1318 53.9871 16.7857 52.8715L16.6584 52.4611L16.642 32.4811C16.6329 21.4921 16.641 12.37 16.6598 12.2098C16.6788 12.0495 16.7125 11.9184 16.7348 11.9184C16.7571 11.9184 17.3091 13.1858 17.9615 14.735C19.1598 17.5803 20.3918 20.4893 22.8449 26.2651C23.5838 28.0051 24.6009 30.4276 25.1052 31.6486C25.6093 32.8696 26.1701 34.1573 26.3514 34.5101C26.7551 35.2959 27.253 35.9692 27.831 36.511C28.3435 36.9915 31.3088 39.0723 31.4417 39.0447C31.5076 39.031 31.5292 38.9733 31.5205 38.8337C31.514 38.7281 30.2255 35.5572 28.6574 31.7874C27.0893 28.0176 24.2101 21.0898 22.2591 16.3923C19.5647 9.90463 18.6813 7.83137 18.5843 7.76772C18.4807 7.69978 18.2691 7.68607 17.4604 7.69518C16.9125 7.70134 16.4642 7.69173 16.4642 7.67381C16.4642 7.62142 18.3171 6.41862 19.0722 5.98084C26.4173 1.7226 35.0067 0.299857 43.3251 1.96352C47.2461 2.74774 51.2382 4.30374 54.489 6.31472L54.9125 6.57674L56.1428 6.64567C56.8194 6.68358 57.3866 6.701 57.4032 6.68441C57.4198 6.66787 57.0252 6.38188 56.5264 6.04899C52.0833 3.08374 47.1674 1.17026 41.9387 0.370842C40.1172 0.0923982 39.2417 0.0310146 36.8604 0.0151416C35.6089 0.00676106 34.4476 0.0094256 34.2797 0.0210806ZM56.373 7.71482C56.2813 7.73858 56.1468 7.8387 56.0742 7.93732C56.0015 8.03595 55.535 9.06569 55.0374 10.2256C53.9876 12.673 50.8905 19.8408 47.5434 27.5694C42.723 38.6998 40.5512 43.7971 40.5512 43.9802C40.5512 44.1962 40.6912 44.3073 41.0319 44.3616C41.2214 44.3919 41.2797 44.379 41.3559 44.2899C41.4071 44.2302 41.8491 43.2596 42.3381 42.133C44.6073 36.9058 53.8962 15.6804 54.0542 15.3614C54.152 15.164 54.2636 14.9933 54.3023 14.9818C54.3589 14.9651 54.3692 18.6287 54.3552 33.8776C54.3361 54.6376 54.3631 53.03 54.0178 53.9451C53.7291 54.7103 53.2642 55.2913 52.5756 55.7475C52.1757 56.0124 51.9895 56.1851 51.986 56.2943C51.985 56.3267 52.0724 56.3954 52.1803 56.4469C52.3583 56.5317 52.7263 56.5404 56.1541 56.5404C59.5155 56.5404 59.9524 56.5305 60.1204 56.4508C60.2242 56.4015 60.3086 56.3329 60.308 56.2982C60.3056 56.1785 60.1138 56.0015 59.7542 55.7873C59.2935 55.5129 58.7307 54.9457 58.4624 54.4856C58.1899 54.0182 57.9932 53.3884 57.9204 52.7506C57.8804 52.3994 57.8675 45.8221 57.8791 31.7596L57.8962 11.2801L58.0164 10.8361C58.1991 10.1609 58.5797 9.36578 58.7202 9.36551C58.7945 9.36534 59.8011 10.256 60.6331 11.0581C66.4038 16.6219 70.0663 23.9727 71.0165 31.8984C71.3309 34.5213 71.3403 37.2917 71.044 40.0014C70.7928 42.2988 70.2249 44.8493 69.456 47.1331C65.9827 57.4505 57.7762 65.6204 47.4348 69.0561L46.4652 69.3783L45.1593 70.3211C43.5932 71.4519 43.6128 71.4351 43.9089 71.3847C44.031 71.3639 44.7054 71.2018 45.4074 71.0245C58.5215 67.7124 68.8 57.1184 71.7396 43.8839C72.1105 42.214 72.3839 40.2977 72.5166 38.437C72.5913 37.3893 72.5914 34.7606 72.5168 33.665C71.8617 24.0484 67.4557 15.1914 60.1594 8.82455L59.7043 8.42744L59.89 8.31272C59.9921 8.24957 60.1191 8.13179 60.1721 8.05093C60.2639 7.91085 60.2636 7.90042 60.1682 7.8306C60.113 7.7903 59.9911 7.74518 59.8972 7.73036C59.5988 7.68324 56.5468 7.66976 56.373 7.71482ZM11.8165 9.75018C9.89933 11.5291 8.08842 13.6589 6.54752 15.9469C3.49946 20.4729 1.53537 25.5757 0.760143 30.9826C0.495519 32.8283 0.456614 33.4775 0.456059 36.0609C0.455448 38.826 0.525101 39.7634 0.895508 41.9743C2.55707 51.8921 8.20985 60.582 16.6335 66.168C17.1412 66.5047 17.796 66.9175 18.0886 67.0854C18.4369 67.2852 18.6315 67.4318 18.6521 67.51C18.7038 67.7063 20.1814 68.6021 21.4847 69.2271C24.3922 70.6216 27.4635 71.3572 31.6712 71.6668C33.2416 71.7824 36.3481 71.7543 37.4709 71.6144C43.2912 70.8893 47.1812 68.6094 49.0731 64.8144C50.2064 62.5412 50.5146 59.3935 49.8723 56.6514C49.4868 55.0053 48.659 53.3396 47.5305 51.939C47.044 51.3353 45.8421 50.1556 45.1299 49.5829C44.394 48.991 42.8796 47.9786 41.9664 47.4679C41.1651 47.0198 36.8301 44.8685 34.9734 43.9974C32.4349 42.8066 31.2517 42.2137 30.4228 41.7172C28.6828 40.6747 27.4391 39.7019 26.1055 38.3402C24.0964 36.2885 23.0566 34.6381 21.7894 31.4889C21.5206 30.8211 21.28 30.254 21.2546 30.2286C21.1528 30.1268 21.0529 30.2998 20.9273 30.7952C20.6986 31.6968 20.6544 32.1372 20.6551 33.5079C20.6556 34.6444 20.672 34.8931 20.7825 35.4412C21.4736 38.8683 23.8025 41.6899 27.8417 43.9934C28.2233 44.211 30.7707 45.5109 33.5027 46.882C36.2347 48.2532 38.8071 49.5667 39.2192 49.801C42.4851 51.6579 44.6274 53.6918 45.848 56.0942C47.1291 58.6159 47.2693 61.3712 46.2625 64.2351C45.6759 65.9034 44.5761 67.3708 43.1597 68.3749C42.5564 68.8026 41.2258 69.4838 40.4161 69.7795C36.8845 71.0693 31.9534 71.034 28.5157 69.6944C26.7507 69.0065 25.2704 68.0135 23.8703 66.5781C22.8474 65.5294 22.2072 64.6567 21.1278 62.8396C20.874 62.4123 20.5903 61.9818 20.4975 61.8829C20.3354 61.7103 20.3244 61.7071 20.2203 61.7997C20.0574 61.9446 20.0154 62.0732 19.459 64.1327C19.0715 65.5669 18.9263 66.0292 18.8699 66.0075C18.6823 65.9355 17.1555 64.946 16.3927 64.4021C10.5744 60.2528 6.20425 54.5082 3.78334 47.8269C1.16407 40.5981 1.05363 32.5142 3.47404 25.1829C5.37491 19.425 8.78983 14.2245 13.372 10.1093L13.804 9.72126L13.192 9.38149L12.58 9.04166L11.8165 9.75018ZM34.1687 22.0522C34.0619 22.0641 33.6997 22.1011 33.3639 22.1345C32.5545 22.2149 31.0051 22.476 30.2997 22.6508C29.518 22.8445 28.4522 23.1818 28.4522 23.2353C28.4522 23.3511 28.9606 24.3499 29.043 24.396C29.157 24.4598 29.3006 24.4186 29.8397 24.1672C32.3134 23.0138 36.1008 22.6959 38.868 23.4094C40.3541 23.7925 41.6668 24.4274 42.8944 25.3568C43.5711 25.869 44.7072 26.994 44.8351 27.2785C44.924 27.4764 44.9573 27.5062 45.0402 27.4619C45.0946 27.4328 45.1641 27.3764 45.1946 27.3366C45.3134 27.1817 46.33 24.5111 46.3133 24.3981C46.2849 24.2074 46.083 24.099 44.9912 23.6888C42.9179 22.9099 41.1813 22.4777 38.9172 22.1771C38.259 22.0897 37.6864 22.0623 36.2222 22.0483C35.1996 22.0385 34.2755 22.0403 34.1687 22.0522ZM32.9163 50.0295C32.9834 50.2802 33.3095 51.0647 34.8732 54.7366C35.2241 55.5608 35.569 56.2946 35.6395 56.3673C35.7969 56.5297 35.9981 56.4978 36.1351 56.2888C36.1862 56.2107 36.617 55.2551 37.0924 54.1653C38.3176 51.3567 38.2369 51.5699 38.1615 51.3416C38.0886 51.1205 37.8288 50.9354 37.591 50.9351C37.4654 50.935 37.4205 50.9699 37.369 51.1083C37.082 51.879 36.2295 53.7376 36.163 53.7376C36.1091 53.7376 35.9759 53.414 35.7505 52.7355C35.3396 51.4993 35.1786 51.1768 34.7387 50.7088C34.2941 50.2358 33.7372 49.9404 33.0212 49.7975L32.8449 49.7624L32.9163 50.0295ZM7.74676 77.0958C7.19598 77.2443 6.77179 77.6039 6.6089 78.0604C6.49773 78.3719 6.51138 79.001 6.63515 79.2676C6.80176 79.6268 7.06411 79.8235 7.84805 80.1772C8.73938 80.5794 8.87369 80.671 9.02243 80.9783C9.24065 81.4291 9.12993 81.9644 8.7426 82.3306C8.51122 82.5494 8.31708 82.6254 7.98941 82.6254C7.53703 82.6254 7.30642 82.5201 6.93252 82.1426C6.74199 81.9503 6.56605 81.7929 6.54158 81.7929C6.51705 81.7929 6.46987 81.9614 6.43674 82.1675C6.3773 82.5365 6.37857 82.544 6.52243 82.6683C6.78417 82.8944 7.35571 83.0298 7.94023 83.0043C8.38346 82.9849 8.50717 82.9564 8.82241 82.8012C9.42253 82.5058 9.77995 81.9862 9.84233 81.3185C9.92014 80.4848 9.62111 80.1056 8.50933 79.6284C7.71085 79.2856 7.45006 79.1009 7.30076 78.7721C7.17028 78.4848 7.171 78.2729 7.30354 77.9809C7.46193 77.6322 7.78755 77.4382 8.21696 77.4371C8.66001 77.4359 8.94301 77.5754 9.13293 77.8888C9.21213 78.0194 9.30309 78.1272 9.335 78.1281C9.36692 78.1291 9.44595 77.9673 9.51055 77.7686L9.62799 77.4074L9.39694 77.274C9.2699 77.2006 9.06605 77.1136 8.94395 77.0806C8.65396 77.0021 8.06644 77.0096 7.74676 77.0958ZM33.9573 77.1323C32.3938 77.5419 31.5014 79.0043 31.8011 80.6658C32.0065 81.8046 32.7896 82.6426 33.9167 82.9296C34.3523 83.0406 35.3733 83.0405 35.8082 82.9294C37.1165 82.5954 37.9616 81.5926 38.0853 80.2272C38.2558 78.3462 36.9168 77.0153 34.8624 77.0239C34.555 77.0252 34.2069 77.0669 33.9573 77.1323ZM49.6332 77.1725C49.5641 77.3073 47.4062 82.1308 47.1545 82.7132L47.0566 82.9399H47.3831H47.7096L47.8491 82.4912C47.9258 82.2446 48.108 81.7429 48.2538 81.3766L48.5189 80.7106H49.5951H50.6712L50.8329 81.0991C50.9218 81.3128 51.115 81.8123 51.2623 82.2091L51.5302 82.9306L51.9791 82.939C52.2261 82.9435 52.4282 82.931 52.4283 82.9112C52.4284 82.8913 51.8637 81.5577 51.1733 79.9475C49.8446 76.8479 49.8213 76.806 49.6332 77.1725ZM54.5779 77.0768C53.7634 77.2824 53.2977 77.8558 53.2943 78.6571C53.2929 78.9822 53.3187 79.0933 53.4521 79.3372C53.66 79.7173 53.808 79.8217 54.6925 80.2119C55.2698 80.4666 55.477 80.5879 55.6436 80.7688C56.2725 81.451 55.715 82.6204 54.7592 82.6238C54.3 82.6256 54.0911 82.5304 53.7159 82.1486C53.5235 81.953 53.3476 81.7929 53.3247 81.7929C53.3019 81.7929 53.2535 81.9614 53.2172 82.1675C53.1524 82.536 53.1536 82.5441 53.2912 82.666C53.7137 83.0402 54.9367 83.1289 55.5482 82.8298C55.9598 82.6284 56.2915 82.2976 56.468 81.9125C56.5831 81.6612 56.6125 81.5101 56.6152 81.1546C56.618 80.7688 56.5988 80.6773 56.4686 80.4557C56.2687 80.1157 56.0758 79.9818 55.2864 79.6349C54.4553 79.2698 54.2378 79.1223 54.0951 78.8277C53.5355 77.6717 55.2152 76.8395 55.9201 77.9235C55.9939 78.037 56.0813 78.1298 56.1144 78.1298C56.1474 78.1298 56.2192 77.9775 56.2739 77.7914C56.3909 77.3932 56.3662 77.3411 55.981 77.1728C55.6926 77.0468 54.9091 76.9932 54.5779 77.0768ZM10.5812 77.4159V77.701L10.8247 77.6676C10.9587 77.6493 11.3708 77.6171 11.7405 77.5962L12.4127 77.5582V80.2583V82.9584H12.8012H13.1897V80.26V77.5616L13.7863 77.598C14.1145 77.6181 14.514 77.6489 14.6743 77.6666L14.9657 77.6987V77.4148V77.1309H12.7735H10.5812V77.4159ZM16.0937 77.2194C16.078 77.2605 16.076 78.1877 16.0892 79.2799C16.1098 80.9696 16.1279 81.3111 16.2103 81.5709C16.4199 82.2314 16.7724 82.6116 17.3992 82.8536C17.8481 83.0268 18.8831 83.0667 19.3874 82.9301C19.8643 82.801 20.3407 82.4771 20.5908 82.1118C20.9847 81.5364 20.9825 81.552 21.0029 79.2348L21.0212 77.1485L20.7684 77.1448L20.5157 77.1409L20.5148 78.9535C20.514 80.2975 20.4936 80.8615 20.4356 81.1349C20.2926 81.8097 20.0217 82.2001 19.5294 82.4409C19.2545 82.5754 19.1504 82.5949 18.7133 82.5934C18.0679 82.5913 17.6921 82.4688 17.3838 82.1601C16.9475 81.7232 16.8602 81.143 16.8555 78.6502L16.8527 77.1448H16.4876C16.2329 77.1448 16.1137 77.1674 16.0937 77.2194ZM22.9022 80.0115V82.9029L24.2203 82.9019C25.6885 82.9008 26.0686 82.8494 26.6634 82.571C27.3426 82.2532 27.954 81.4269 28.1221 80.5996C28.2284 80.0762 28.2036 79.2756 28.0676 78.8431C27.9115 78.3463 27.5829 77.8705 27.1999 77.5867C26.6691 77.1936 26.5434 77.1721 24.6088 77.1445L22.9022 77.1202V80.0115ZM29.6177 80.0418V82.9421H30.0062H30.3947V80.0442V77.1464L30.0062 77.1439L29.6177 77.1415V80.0418ZM43.2707 80.0246V82.9029H44.8108H46.3509V82.6611V82.4193L45.1993 82.447L44.0477 82.4746V79.8081V77.1415L43.6592 77.1439L43.2707 77.1464V80.0246ZM57.9227 80.0169V82.9029H59.4628H61.0029V82.6628V82.4227L59.8513 82.4482L58.6997 82.4737V81.2663V80.0589L59.7264 80.0819L60.7532 80.1051V79.8667V79.6284H59.7264H58.6997V78.5955V77.5627L59.7126 77.5902C60.2696 77.6053 60.7788 77.6352 60.8439 77.6566C60.9544 77.6929 60.9624 77.6766 60.9624 77.4132V77.1309H59.4426H57.9227V80.0169ZM62.3627 80.0305V82.9421H62.7512H63.1397V81.535V80.1279H63.2953C63.4244 80.1279 63.5256 80.2187 63.8919 80.663C64.1345 80.9574 64.6264 81.588 64.985 82.0644L65.6371 82.9306L66.1366 82.9392C66.7 82.9489 66.6915 82.9712 66.3003 82.5144C66.1565 82.3465 65.6596 81.7238 65.1961 81.1306L64.3533 80.0521L64.6344 79.9801C65.6833 79.7118 66.2523 78.9134 66.0039 78.0589C65.94 77.8391 65.855 77.7003 65.6965 77.5571C65.3326 77.2284 65.0593 77.174 63.6253 77.1448L62.3627 77.119V80.0305ZM34.2401 77.4304C33.4403 77.6906 32.9006 78.3505 32.7023 79.3106C32.5497 80.0498 32.5946 80.7157 32.8418 81.3785C33.0138 81.8397 33.5637 82.3905 34.0299 82.5684C34.4975 82.7469 35.2312 82.7494 35.683 82.5741C36.5732 82.2286 37.2228 81.1139 37.2203 79.9359C37.2183 79.0334 36.9854 78.3953 36.4884 77.9304C36.0592 77.529 35.6916 77.3877 35.0289 77.3695C34.67 77.3597 34.3913 77.3812 34.2401 77.4304ZM24.1371 77.5051L23.6792 77.5239V80.0244V82.525L24.6921 82.5058C25.6946 82.4869 25.7087 82.4849 26.0657 82.3133C26.8562 81.9335 27.252 81.258 27.3236 80.1662C27.401 78.9847 27.0695 78.1391 26.3935 77.7942C25.9535 77.5698 25.1315 77.4645 24.1371 77.5051ZM63.1397 78.6278V79.8067L63.6531 79.7693C64.2738 79.7241 64.6041 79.6259 64.8686 79.4079C65.1401 79.1841 65.258 78.9132 65.2561 78.5173C65.2538 78.0428 65.1134 77.814 64.6937 77.6005C64.5505 77.5276 64.3209 77.4948 63.8196 77.4753L63.1397 77.4489V78.6278ZM49.491 78.4682C49.4316 78.6026 49.2333 79.0623 49.0505 79.4896L48.7179 80.2666L49.5818 80.282C50.057 80.2904 50.4562 80.2869 50.4688 80.2743C50.4887 80.2544 49.6725 78.3067 49.619 78.2462C49.608 78.2338 49.5504 78.3337 49.491 78.4682Z" fill="#D9C6A4"/>
</svg>
