<svg width="46" height="56" viewBox="0 0 46 56" fill="none" xmlns="http://www.w3.org/2000/svg">
<path d="M20.0025 14.9756L22.433 1L25.3098 15.1786C25.9315 18.2424 28.2808 20.6634 31.3245 21.3768L44.1443 24.3814L31.0403 27.3152C27.7196 28.0586 25.2326 30.8214 24.8412 34.2017L22.433 55L19.7923 34.0942C19.372 30.7674 16.9216 28.0557 13.6542 27.3016L1 24.3814L13.9196 21.4C17.0546 20.6765 19.4512 18.1454 20.0025 14.9756Z" stroke="#35302D"/>
<path d="M35.1671 30.7326L35.7329 27.4434L36.4334 30.9337C37.0484 33.9979 39.3915 36.4234 42.4326 37.1439L45.2579 37.8134L42.695 38.3934C39.339 39.153 36.8446 41.9736 36.501 45.3973L35.7329 53.0516L34.8842 45.298C34.5147 41.9232 32.0554 39.1491 28.7492 38.3778L26.3301 37.8134L29.1005 37.167C32.2321 36.4364 34.6219 33.9017 35.1671 30.7326Z" stroke="#35302D"/>
</svg>
