<svg width="45" height="55" viewBox="0 0 45 55" fill="none" xmlns="http://www.w3.org/2000/svg">
<path d="M19.2446 14.4756L21.6752 0.5L24.552 14.6786C25.1736 17.7424 27.523 20.1634 30.5667 20.8768L43.3865 23.8814L30.2825 26.8152C26.9618 27.5586 24.4748 30.3214 24.0834 33.7017L21.6752 54.5L19.0344 33.5942C18.6142 30.2674 16.1638 27.5557 12.8964 26.8016L0.242188 23.8814L13.1618 20.9C16.2968 20.1765 18.6934 17.6454 19.2446 14.4756Z" fill="#35302D"/>
<path d="M34.4093 30.2326L34.9751 26.9434L35.6756 30.4337C36.2906 33.4979 38.6337 35.9234 41.6748 36.6439L44.5001 37.3134L41.9372 37.8934C38.5812 38.653 36.0868 41.4736 35.7432 44.8973L34.9751 52.5516L34.1264 44.798C33.7569 41.4232 31.2976 38.6491 27.9914 37.8778L25.5723 37.3134L28.3427 36.667C31.4743 35.9364 33.8641 33.4017 34.4093 30.2326Z" fill="#35302D"/>
</svg>
