<svg width="23" height="24" viewBox="0 0 23 24" fill="none" xmlns="http://www.w3.org/2000/svg">
<g clip-path="url(#clip0_354_962)">
<path d="M20.125 8.08712V11.953C18.3866 11.7806 16.7291 11.1338 15.3333 10.0833V14.3958C15.3331 15.5661 15.0032 16.7126 14.3814 17.704C13.7597 18.6954 12.8712 19.4916 11.8178 20.0015C10.7645 20.5113 9.58881 20.714 8.42552 20.5865C7.26224 20.459 6.1584 20.0064 5.24046 19.2806C4.32252 18.5547 3.62762 17.585 3.23536 16.4824C2.8431 15.3799 2.76936 14.1891 3.02257 13.0466C3.27579 11.9041 3.84573 10.856 4.66709 10.0224C5.48844 9.18882 6.52801 8.60347 7.66667 8.33342V12.4792C7.33996 12.7242 7.08131 13.0487 6.91528 13.4218C6.74924 13.7949 6.68134 14.2043 6.71802 14.611C6.75469 15.0177 6.89473 15.4083 7.12482 15.7457C7.35492 16.0831 7.66745 16.3561 8.03272 16.5387C8.39799 16.7214 8.80388 16.8076 9.21186 16.7892C9.61983 16.7709 10.0163 16.6486 10.3637 16.4339C10.7111 16.2191 10.9979 15.9192 11.1967 15.5625C11.3956 15.2058 11.5 14.8042 11.5 14.3958V3.375H15.4129C15.6124 4.55222 16.1732 5.63822 17.0175 6.48252C17.8618 7.32681 18.9478 7.88758 20.125 8.08712Z" stroke="#E0D6D0" stroke-width="1.5" stroke-linecap="round" stroke-linejoin="round"/>
</g>
<defs>
<clipPath id="clip0_354_962">
<rect width="23" height="23" fill="white" transform="translate(0 0.5)"/>
</clipPath>
</defs>
</svg>
