<svg width="24" height="24" viewBox="0 0 24 24" fill="none" xmlns="http://www.w3.org/2000/svg">
<g clip-path="url(#clip0_188_2647)">
<path d="M20.625 8.08712V11.953C18.8866 11.7806 17.2291 11.1338 15.8333 10.0833V14.3958C15.8331 15.5661 15.5032 16.7126 14.8814 17.704C14.2597 18.6954 13.3712 19.4916 12.3178 20.0015C11.2645 20.5113 10.0888 20.714 8.92552 20.5865C7.76224 20.459 6.6584 20.0064 5.74046 19.2806C4.82252 18.5547 4.12762 17.585 3.73536 16.4824C3.3431 15.3799 3.26936 14.1891 3.52257 13.0466C3.77579 11.9041 4.34573 10.856 5.16709 10.0224C5.98844 9.18882 7.02801 8.60347 8.16667 8.33342V12.4792C7.83996 12.7242 7.58131 13.0487 7.41528 13.4218C7.24924 13.7949 7.18134 14.2043 7.21802 14.611C7.25469 15.0177 7.39473 15.4083 7.62482 15.7457C7.85492 16.0831 8.16745 16.3561 8.53272 16.5387C8.89799 16.7214 9.30388 16.8076 9.71186 16.7892C10.1198 16.7709 10.5163 16.6486 10.8637 16.4339C11.2111 16.2191 11.4979 15.9192 11.6967 15.5625C11.8956 15.2058 12 14.8042 12 14.3958V3.375H15.9129C16.1124 4.55222 16.6732 5.63822 17.5175 6.48252C18.3618 7.32681 19.4478 7.88758 20.625 8.08712Z" stroke="#35302D" stroke-width="1.5" stroke-linecap="round" stroke-linejoin="round"/>
</g>
<defs>
<clipPath id="clip0_188_2647">
<rect width="23" height="23" fill="white" transform="translate(0.5 0.5)"/>
</clipPath>
</defs>
</svg>
